<svg width="19" height="19" viewBox="0 0 19 19" fill="none" xmlns="http://www.w3.org/2000/svg">
<path d="M14.7719 17.8184C14.0019 18.0459 13.0919 18.1509 12.0244 18.1509H6.77435C5.70685 18.1509 4.79686 18.0459 4.02686 17.8184C4.21936 15.5434 6.5556 13.7496 9.39935 13.7496C12.2431 13.7496 14.5794 15.5434 14.7719 17.8184Z" stroke="#85858B" stroke-width="1.3" stroke-linecap="round" stroke-linejoin="round"/>
<path d="M12.0249 0.650024H6.7749C2.3999 0.650024 0.649902 2.40002 0.649902 6.77502V12.025C0.649902 15.3325 1.6474 17.1438 4.0274 17.8175C4.2199 15.5425 6.55615 13.7487 9.3999 13.7487C12.2437 13.7487 14.5799 15.5425 14.7724 17.8175C17.1524 17.1438 18.1499 15.3325 18.1499 12.025V6.77502C18.1499 2.40002 16.3999 0.650024 12.0249 0.650024ZM9.3999 11.2988C7.6674 11.2988 6.2674 9.89004 6.2674 8.15754C6.2674 6.42504 7.6674 5.02502 9.3999 5.02502C11.1324 5.02502 12.5324 6.42504 12.5324 8.15754C12.5324 9.89004 11.1324 11.2988 9.3999 11.2988Z" stroke="#85858B" stroke-width="1.3" stroke-linecap="round" stroke-linejoin="round"/>
<path d="M12.5321 8.15754C12.5321 9.89004 11.1321 11.2988 9.39959 11.2988C7.66709 11.2988 6.26709 9.89004 6.26709 8.15754C6.26709 6.42504 7.66709 5.02502 9.39959 5.02502C11.1321 5.02502 12.5321 6.42504 12.5321 8.15754Z" stroke="#85858B" stroke-width="1.3" stroke-linecap="round" stroke-linejoin="round"/>
</svg>
