<svg width="19" height="19" viewBox="0 0 19 19" fill="none" xmlns="http://www.w3.org/2000/svg">
<path d="M3.2749 7.65002H5.0249C6.7749 7.65002 7.6499 6.77502 7.6499 5.02502V3.27502C7.6499 1.52502 6.7749 0.650024 5.0249 0.650024H3.2749C1.5249 0.650024 0.649902 1.52502 0.649902 3.27502V5.02502C0.649902 6.77502 1.5249 7.65002 3.2749 7.65002Z" stroke="#85858B" stroke-width="1.3" stroke-miterlimit="10" stroke-linecap="round" stroke-linejoin="round"/>
<path d="M13.7749 7.65002H15.5249C17.2749 7.65002 18.1499 6.77502 18.1499 5.02502V3.27502C18.1499 1.52502 17.2749 0.650024 15.5249 0.650024H13.7749C12.0249 0.650024 11.1499 1.52502 11.1499 3.27502V5.02502C11.1499 6.77502 12.0249 7.65002 13.7749 7.65002Z" stroke="#85858B" stroke-width="1.3" stroke-miterlimit="10" stroke-linecap="round" stroke-linejoin="round"/>
<path d="M13.7749 18.15H15.5249C17.2749 18.15 18.1499 17.275 18.1499 15.525V13.775C18.1499 12.025 17.2749 11.15 15.5249 11.15H13.7749C12.0249 11.15 11.1499 12.025 11.1499 13.775V15.525C11.1499 17.275 12.0249 18.15 13.7749 18.15Z" stroke="#85858B" stroke-width="1.3" stroke-miterlimit="10" stroke-linecap="round" stroke-linejoin="round"/>
<path d="M3.2749 18.15H5.0249C6.7749 18.15 7.6499 17.275 7.6499 15.525V13.775C7.6499 12.025 6.7749 11.15 5.0249 11.15H3.2749C1.5249 11.15 0.649902 12.025 0.649902 13.775V15.525C0.649902 17.275 1.5249 18.15 3.2749 18.15Z" stroke="#85858B" stroke-width="1.3" stroke-miterlimit="10" stroke-linecap="round" stroke-linejoin="round"/>
</svg>
